<svg width="38" height="38" viewBox="0 0 38 38" fill="none" xmlns="http://www.w3.org/2000/svg">
<circle cx="19" cy="19" r="18.75" stroke="#EFEFEF" stroke-width="0.5"/>
<path d="M23.1275 10H14.8724C12.1857 10 10 12.1857 10 14.8724V23.1277C10 25.8142 12.1857 28 14.8724 28H23.1277C25.8142 28 28 25.8142 28 23.1277V14.8724C28 12.1857 25.8142 10 23.1275 10V10ZM19 23.9217C16.2861 23.9217 14.0783 21.7139 14.0783 19C14.0783 16.2861 16.2861 14.0783 19 14.0783C21.7139 14.0783 23.9217 16.2861 23.9217 19C23.9217 21.7139 21.7139 23.9217 19 23.9217ZM24.0394 15.239C23.2374 15.239 22.5851 14.5866 22.5851 13.7846C22.5851 12.9826 23.2374 12.3302 24.0394 12.3302C24.8414 12.3302 25.4939 12.9826 25.4939 13.7846C25.4939 14.5866 24.8414 15.239 24.0394 15.239Z" fill="white"/>
<path d="M18.9998 15.1333C16.8679 15.1333 15.1333 16.8678 15.1333 18.9998C15.1333 21.1317 16.8679 22.8663 18.9998 22.8663C21.1318 22.8663 22.8663 21.1317 22.8663 18.9998C22.8663 16.8678 21.1318 15.1333 18.9998 15.1333Z" fill="white"/>
<path d="M24.0392 13.3857C23.8192 13.3857 23.6401 13.5648 23.6401 13.7848C23.6401 14.0048 23.8192 14.1839 24.0392 14.1839C24.2594 14.1839 24.4384 14.005 24.4384 13.7848C24.4384 13.5647 24.2594 13.3857 24.0392 13.3857Z" fill="white"/>
</svg>
