<svg width="75" height="41" viewBox="0 0 75 41" fill="none" xmlns="http://www.w3.org/2000/svg">
<path d="M40.9726 28.0903C40.2609 28.0903 39.6842 28.6639 39.6842 29.3716C39.6842 30.6966 38.6 31.7748 37.2674 31.7748H29.1679C28.8006 31.7748 28.4508 31.9307 28.2063 32.2033L24.4809 36.357V33.0562C24.4809 32.3486 23.904 31.775 23.1924 31.775H4.99382C3.66113 31.775 2.57708 30.6968 2.57708 29.3717V13.1657C2.57708 11.8405 3.6613 10.7625 4.99382 10.7625H29.6344C30.346 10.7625 30.9228 10.1889 30.9228 9.48125C30.9228 8.77364 30.346 8.19999 29.6344 8.19999H4.99382C2.24014 8.19999 0 10.4278 0 13.1659V29.3717C0 32.1098 2.24031 34.3376 4.99382 34.3376H21.9036V39.7187C21.9036 40.2502 22.2337 40.7268 22.7333 40.916C22.8828 40.9727 23.0381 41 23.1921 41C23.5523 41 23.9045 40.8495 24.154 40.5715L29.7453 34.3375H37.2676C40.0211 34.3375 42.2614 32.1097 42.2614 29.3716C42.2613 28.6639 41.6842 28.0903 40.9726 28.0903Z" fill="#F16522"/>
<path d="M70.006 0H67.0762C66.3645 0 65.7878 0.57365 65.7878 1.28126C65.7878 1.98886 66.3645 2.56251 67.0762 2.56251H70.006C71.3387 2.56251 72.4227 3.64067 72.4227 4.96574V21.1716C72.4227 22.4966 71.3385 23.5748 70.006 23.5748H51.8076C51.0958 23.5748 50.5191 24.1484 50.5191 24.856V28.1568L46.7937 24.0032C46.549 23.7307 46.1992 23.5746 45.8319 23.5746H37.7324C36.3997 23.5746 35.3156 22.4965 35.3156 21.1714V4.96574C35.3156 3.6405 36.3997 2.56251 37.7324 2.56251H62.9533C63.6651 2.56251 64.2418 1.98886 64.2418 1.28126C64.2418 0.57365 63.6651 0 62.9533 0H37.7322C34.9787 0 32.7384 2.22779 32.7384 4.96591V21.1717C32.7384 23.9098 34.9787 26.1375 37.7322 26.1375H45.2545L50.8458 32.3715C51.0953 32.6494 51.4475 32.8 51.8079 32.8C51.9619 32.8 52.1172 32.7725 52.2665 32.7159C52.7661 32.5266 53.0962 32.0501 53.0962 31.5186V26.1375H70.0062C72.7597 26.1375 75 23.9097 75 21.1716V4.96574C74.9998 2.22745 72.7595 0 70.006 0Z" fill="#F16522"/>
<path d="M67.0113 6.49144H52.4832C51.7714 6.49144 51.1947 7.06509 51.1947 7.77269C51.1947 8.4803 51.7714 9.05395 52.4832 9.05395H67.0113C67.723 9.05395 68.2997 8.4803 68.2997 7.77269C68.2997 7.06509 67.723 6.49144 67.0113 6.49144Z" fill="#F16522"/>
<path d="M48.1881 6.49144H40.7271C40.0153 6.49144 39.4386 7.06509 39.4386 7.77269C39.4386 8.4803 40.0153 9.05395 40.7271 9.05395H48.1881C48.8998 9.05395 49.4765 8.4803 49.4765 7.77269C49.4765 7.06509 48.8998 6.49144 48.1881 6.49144Z" fill="#F16522"/>
<path d="M67.0115 11.7446H62.5335C61.8218 11.7446 61.2451 12.3182 61.2451 13.0258C61.2451 13.7334 61.8218 14.3071 62.5335 14.3071H67.0115C67.7232 14.3071 68.2999 13.7334 68.2999 13.0258C68.2999 12.3182 67.7232 11.7446 67.0115 11.7446Z" fill="#F16522"/>
<path d="M58.2381 11.7446H40.7271C40.0153 11.7446 39.4386 12.3182 39.4386 13.0258C39.4386 13.7334 40.0153 14.3071 40.7271 14.3071H58.2381C58.9498 14.3071 59.5265 13.7334 59.5265 13.0258C59.5265 12.3182 58.9498 11.7446 58.2381 11.7446Z" fill="#F16522"/>
<path d="M59.0111 16.9977H40.7271C40.0153 16.9977 39.4386 17.5713 39.4386 18.2789C39.4386 18.9865 40.0153 19.5602 40.7271 19.5602H59.0111C59.7229 19.5602 60.2996 18.9865 60.2996 18.2789C60.2996 17.5713 59.7229 16.9977 59.0111 16.9977Z" fill="#F16522"/>
<path d="M15.0316 14.1789H7.57062C6.85903 14.1789 6.28216 14.7526 6.28216 15.4602C6.28216 16.1678 6.85903 16.7414 7.57062 16.7414H15.0316C15.7432 16.7414 16.3201 16.1678 16.3201 15.4602C16.3202 14.7526 15.7432 14.1789 15.0316 14.1789Z" fill="#F16522"/>
<path d="M27.6585 14.1789H20.1975C19.4859 14.1789 18.9091 14.7526 18.9091 15.4602C18.9091 16.1678 19.4859 16.7414 20.1975 16.7414H27.6585C28.3701 16.7414 28.947 16.1678 28.947 15.4602C28.947 14.7526 28.3701 14.1789 27.6585 14.1789Z" fill="#F16522"/>
<path d="M30.1498 19.4321H7.57062C6.85903 19.4321 6.28216 20.0057 6.28216 20.7133C6.28216 21.4209 6.85903 21.9946 7.57062 21.9946H30.1496C30.8612 21.9946 31.4381 21.4209 31.4381 20.7133C31.4383 20.0057 30.8614 19.4321 30.1498 19.4321Z" fill="#F16522"/>
<path d="M25.8548 24.6852H15.5474C14.8358 24.6852 14.259 25.2588 14.259 25.9664C14.259 26.674 14.8358 27.2477 15.5474 27.2477H25.8548C26.5663 27.2477 27.1432 26.674 27.1432 25.9664C27.1432 25.259 26.5663 24.6852 25.8548 24.6852Z" fill="#F16522"/>
<path d="M11.252 24.6852H7.57062C6.85903 24.6852 6.28216 25.2588 6.28216 25.9664C6.28216 26.674 6.85903 27.2477 7.57062 27.2477H11.252C11.9636 27.2477 12.5405 26.674 12.5405 25.9664C12.5405 25.259 11.9636 24.6852 11.252 24.6852Z" fill="#F16522"/>
</svg>
