<svg width="42" height="42" viewBox="0 0 42 42" fill="none" xmlns="http://www.w3.org/2000/svg">
<g clip-path="url(#clip0_6_90)">
<path d="M39.7838 17.0513C41.1271 16.0279 42 14.4158 42 12.6C42 9.5123 39.4877 7 36.4 7C33.3123 7 30.8 9.5123 30.8 12.6C30.8 14.273 31.5413 15.7731 32.7082 16.8H28.9898L24.2949 12.1051C24.0212 11.8314 23.5788 11.8314 23.3051 12.1051L20.5051 14.9051C20.2314 15.1788 20.2314 15.6212 20.5051 15.8949L26.8051 22.1949C26.936 22.3265 27.1138 22.4 27.3 22.4H32.9V27.3H29.4H20.9076L24.3824 22.0885L23.2176 21.3122L19.2255 27.3H17.5V23.8C17.5 23.4129 17.1871 23.1 16.8 23.1H11.2V20.3C11.2 18.8244 10.2788 17.5651 8.9838 17.0513C10.3271 16.0279 11.2 14.4158 11.2 12.6C11.2 9.5123 8.6877 7 5.6 7C2.5123 7 0 9.5123 0 12.6C0 14.4158 0.8729 16.0279 2.2162 17.0513C0.9212 17.5651 0 18.8244 0 20.3V30.1C0 32.0299 1.5701 33.6 3.5 33.6V42H4.9V33.6H9.8V41.3C9.8 41.6871 10.1129 42 10.5 42H15.4C15.7871 42 16.1 41.6871 16.1 41.3V30.8C16.1 30.0125 15.8389 29.2852 15.3986 28.7H16.1H16.8H20.3V40.6H17.5V42H24.5V40.6H21.7V28.7H26.6182C26.1737 29.2866 25.9 30.009 25.9 30.8V41.3C25.9 41.6871 26.2129 42 26.6 42H31.5C31.8871 42 32.2 41.6871 32.2 41.3V33.6H37.1V42H38.5V33.6C40.4299 33.6 42 32.0299 42 30.1V20.3C42 18.8244 41.0788 17.5651 39.7838 17.0513ZM1.4 12.6C1.4 10.2837 3.2837 8.4 5.6 8.4C7.9163 8.4 9.8 10.2837 9.8 12.6C9.8 14.9163 7.9163 16.8 5.6 16.8C3.2837 16.8 1.4 14.9163 1.4 12.6ZM16.1 27.3H7V21.7H5.6V28C5.6 28.3871 5.9129 28.7 6.3 28.7H12.6C13.7578 28.7 14.7 29.6422 14.7 30.8V40.6H11.2V32.9C11.2 32.5129 10.8871 32.2 10.5 32.2H3.5C2.3422 32.2 1.4 31.2578 1.4 30.1V20.3C1.4 19.1422 2.3422 18.2 3.5 18.2H7.7C8.8578 18.2 9.8 19.1422 9.8 20.3V23.8C9.8 24.1871 10.1129 24.5 10.5 24.5H16.1V27.3ZM32.2 12.6C32.2 10.2837 34.0837 8.4 36.4 8.4C38.7163 8.4 40.6 10.2837 40.6 12.6C40.6 14.9163 38.7163 16.8 36.4 16.8C34.0837 16.8 32.2 14.9163 32.2 12.6ZM40.6 30.1C40.6 31.2578 39.6578 32.2 38.5 32.2H31.5C31.1129 32.2 30.8 32.5129 30.8 32.9V40.6H27.3V30.8C27.3 29.6422 28.2422 28.7 29.4 28.7H33.6C33.9871 28.7 34.3 28.3871 34.3 28V21.7C34.3 21.3129 33.9871 21 33.6 21H27.5898L21.9898 15.4L23.8 13.5898L28.2051 17.9949C28.336 18.1265 28.5138 18.2 28.7 18.2H38.5C39.6578 18.2 40.6 19.1422 40.6 20.3V30.1Z" fill="#035297"/>
<path d="M27.9999 0H13.9999C12.8421 0 11.8999 0.9422 11.8999 2.1V7.7C11.8999 8.8578 12.8421 9.8 13.9999 9.8H14.6999V14C14.6999 14.2828 14.87 14.539 15.1318 14.6468C15.2186 14.6832 15.3096 14.7 15.3999 14.7C15.5819 14.7 15.7611 14.6286 15.8948 14.4949L20.5897 9.8H27.9999C29.1577 9.8 30.0999 8.8578 30.0999 7.7V2.1C30.0999 0.9422 29.1577 0 27.9999 0ZM28.6999 7.7C28.6999 8.0864 28.3863 8.4 27.9999 8.4H20.2999C20.1137 8.4 19.9359 8.4735 19.805 8.6051L16.0999 12.3102V9.1C16.0999 8.7129 15.787 8.4 15.3999 8.4H13.9999C13.6135 8.4 13.2999 8.0864 13.2999 7.7V2.1C13.2999 1.7136 13.6135 1.4 13.9999 1.4H27.9999C28.3863 1.4 28.6999 1.7136 28.6999 2.1V7.7Z" fill="#035297"/>
<path d="M18.9002 2.79999H14.7002V4.19999H18.9002V2.79999Z" fill="#035297"/>
<path d="M27.3002 5.59998H14.7002V6.99997H27.3002V5.59998Z" fill="#035297"/>
<path d="M27.2998 2.79999H20.2998V4.19999H27.2998V2.79999Z" fill="#035297"/>
</g>
<defs>
<clipPath id="clip0_6_90">
<rect width="42" height="42" fill="white"/>
</clipPath>
</defs>
</svg>
