<svg width="42" height="42" viewBox="0 0 42 42" fill="none" xmlns="http://www.w3.org/2000/svg">
<g clip-path="url(#clip0_6_83)">
<path d="M15.6689 33.3063C16.1217 33.3063 16.4893 32.9391 16.4893 32.486C16.4893 32.0329 16.1217 31.6656 15.6689 31.6656H5.8252C5.3721 31.6656 5.00488 32.0329 5.00488 32.486C5.00488 32.9391 5.3721 33.3063 5.8252 33.3063H15.6689Z" fill="#035297"/>
<path d="M41.4242 21.6088L32.2562 18.7467C32.1723 18.7182 32.0835 18.7028 31.9928 18.7028C31.9925 18.7028 31.9919 18.7028 31.9915 18.7028C31.9012 18.7028 31.8121 18.7182 31.7285 18.7464L30.5089 19.1274V8.03906C30.5089 7.81252 30.4169 7.60744 30.2686 7.45908L23.0498 0.240326C22.9015 0.0916443 22.6964 0 22.4698 0H2.46094C1.1039 0 0 1.1039 0 2.46094V15.668C0 16.1211 0.367218 16.4883 0.820312 16.4883C1.27341 16.4883 1.64062 16.1211 1.64062 15.668V2.46094C1.64062 2.00848 2.00848 1.64062 2.46094 1.64062H21.6495V6.51123C21.6495 7.80611 22.7028 8.85938 23.9973 8.85938H28.8683V19.6394L22.5602 21.6088C22.2177 21.7159 21.9844 22.0331 21.9844 22.392V22.475H5.82518C5.37209 22.475 5.00487 22.8422 5.00487 23.2953C5.00487 23.7484 5.37209 24.1156 5.82518 24.1156H21.9844V27.0703H5.82518C5.37209 27.0703 5.00487 27.4375 5.00487 27.8906C5.00487 28.3437 5.37209 28.7109 5.82518 28.7109H21.9844V30.0645C21.9844 32.6529 22.8066 35.0821 24.222 37.0781H2.46094C2.00848 37.0781 1.64062 36.7103 1.64062 36.2578V23.0508C1.64062 22.5977 1.27341 22.2305 0.820312 22.2305C0.367218 22.2305 0 22.5977 0 23.0508V36.2578C0 37.6149 1.1039 38.7188 2.46094 38.7188H25.6178C27.2792 40.3533 29.4178 41.5216 31.8377 41.9853C31.8887 41.9952 31.9406 42 31.9922 42C32.0438 42 32.0957 41.9952 32.1466 41.9853C37.8561 40.8913 42 35.8778 42 30.0645V22.392C42 22.0331 41.7667 21.7159 41.4242 21.6088ZM23.9973 7.21875C23.6074 7.21875 23.2901 6.90152 23.2901 6.51123V2.8006L27.708 7.21875H23.9973ZM40.3594 30.0645C40.3594 35.0395 36.8503 39.3372 31.9922 40.3434C27.1341 39.3372 23.625 35.0395 23.625 30.0645V22.9953L31.9922 20.3828L40.3594 22.9953V30.0645Z" fill="#035297"/>
<path d="M31.7477 22.1779L25.8414 24.022C25.4989 24.1291 25.2656 24.446 25.2656 24.8049V30.0642C25.2656 34.0401 27.9425 37.5521 31.7749 38.6044C31.8461 38.6239 31.9191 38.6335 31.9922 38.6335C32.0652 38.6335 32.1383 38.6239 32.2094 38.6044C36.0418 37.5521 38.7188 34.0401 38.7188 30.0645V24.8052C38.7188 24.4463 38.4855 24.1291 38.1429 24.022L32.2367 22.1779C32.0774 22.1283 31.907 22.1283 31.7477 22.1779ZM37.0781 25.4082V30.0642C37.0781 33.2278 34.9979 36.031 31.9922 36.9589C28.9865 36.031 26.9062 33.2278 26.9062 30.0642V25.4082L31.9922 23.8205L37.0781 25.4082Z" fill="#035297"/>
<path d="M29.9472 29.3957C29.6267 29.0753 29.1076 29.0753 28.7872 29.3957C28.4668 29.7162 28.4668 30.2356 28.7872 30.5557L30.6771 32.4459C30.8373 32.6062 31.0472 32.6863 31.2571 32.6863C31.467 32.6863 31.6769 32.6062 31.8371 32.4459L35.1972 29.0859C35.5176 28.7654 35.5176 28.246 35.1972 27.9256C34.8767 27.6055 34.3576 27.6055 34.0369 27.9256L31.2571 30.7057L29.9472 29.3957Z" fill="#035297"/>
<path d="M17.6377 8.03809H13.7002C13.2471 8.03809 12.8799 8.40562 12.8799 8.8584V11.3193H10.4189C9.96585 11.3193 9.59863 11.6869 9.59863 12.1396V16.0771C9.59863 16.5302 9.96585 16.8975 10.4189 16.8975H12.8799V19.3584C12.8799 19.8115 13.2471 20.1787 13.7002 20.1787H17.6377C18.0905 20.1787 18.458 19.8115 18.458 19.3584V16.8975H20.9189C21.3717 16.8975 21.7393 16.5302 21.7393 16.0771V12.1396C21.7393 11.6869 21.3717 11.3193 20.9189 11.3193H18.458V8.8584C18.458 8.40562 18.0905 8.03809 17.6377 8.03809ZM20.0986 12.96V15.2568H17.6377C17.1846 15.2568 16.8174 15.6244 16.8174 16.0771V18.5381H14.5205V16.0771C14.5205 15.6244 14.153 15.2568 13.7002 15.2568H11.2393V12.96H13.7002C14.153 12.96 14.5205 12.5927 14.5205 12.1396V9.67871H16.8174V12.1396C16.8174 12.5927 17.1846 12.96 17.6377 12.96H20.0986Z" fill="#035297"/>
<path d="M0.820312 20.1797C1.03596 20.1797 1.24777 20.0919 1.4003 19.9394C1.55283 19.7868 1.64062 19.575 1.64062 19.3594C1.64062 19.1437 1.55283 18.9319 1.4003 18.7794C1.24777 18.6269 1.03596 18.5391 0.820312 18.5391C0.60466 18.5391 0.392853 18.6269 0.240326 18.7794C0.087799 18.9319 0 19.1437 0 19.3594C0 19.575 0.087799 19.7868 0.240326 19.9394C0.392853 20.0919 0.60466 20.1797 0.820312 20.1797Z" fill="#035297"/>
</g>
<defs>
<clipPath id="clip0_6_83">
<rect width="42" height="42" fill="white"/>
</clipPath>
</defs>
</svg>
