<svg width="61" height="61" viewBox="0 0 61 61" fill="none" xmlns="http://www.w3.org/2000/svg">
<g clip-path="url(#clip0_6_60)">
<path d="M20.9496 18.9747C22.4956 18.9747 23.7532 17.7169 23.7532 16.1711C23.7532 14.6252 22.4955 13.3675 20.9496 13.3675C19.4038 13.3675 18.146 14.6252 18.146 16.1711C18.146 17.7169 19.4036 18.9747 20.9496 18.9747ZM20.9496 15.1546C21.5102 15.1546 21.9661 15.6107 21.9661 16.1711C21.9661 16.7315 21.5101 17.1876 20.9496 17.1876C20.3892 17.1876 19.9331 16.7315 19.9331 16.1711C19.9331 15.6107 20.3891 15.1546 20.9496 15.1546V15.1546Z" fill="#F16522"/>
<path d="M20.9495 24.705C25.1285 24.705 28.5284 21.3051 28.5284 17.1261C28.5284 12.9471 25.1285 9.5472 20.9495 9.5472C16.7704 9.5472 13.3706 12.9471 13.3706 17.1261C13.3706 21.3052 16.7704 24.705 20.9495 24.705ZM18.3412 22.2949C19.0491 21.6489 19.9671 21.2883 20.9495 21.2883C21.9318 21.2883 22.8499 21.649 23.5578 22.2949C22.7733 22.6925 21.8875 22.918 20.9495 22.918C20.0115 22.9179 19.1257 22.6923 18.3412 22.2949ZM20.9495 11.3343C24.1431 11.3343 26.7413 13.9325 26.7413 17.1261C26.7413 18.73 26.0858 20.1832 25.0289 21.2331C23.9648 20.1251 22.5126 19.501 20.9495 19.501C19.3861 19.501 17.9342 20.1251 16.8701 21.2331C15.8132 20.1832 15.1576 18.73 15.1576 17.1261C15.1577 13.9325 17.7558 11.3343 20.9495 11.3343V11.3343Z" fill="#F16522"/>
<path d="M52.4663 3.82012H49.6012C49.1077 3.82012 48.7076 4.2202 48.7076 4.71368C48.7076 5.20716 49.1077 5.60723 49.6012 5.60723H52.4663C52.5002 5.60723 52.5278 5.63476 52.5278 5.66871V59.1513C52.5278 59.1852 52.5002 59.2128 52.4663 59.2128H12.3543C12.3203 59.2128 12.2928 59.1852 12.2928 59.1513V57.1798H48.646C49.6654 57.1798 50.4946 56.3505 50.4946 55.3312V52.466C50.4946 51.9725 50.0946 51.5724 49.6011 51.5724C49.1076 51.5724 48.7075 51.9725 48.7075 52.466V55.3312C48.7075 55.3651 48.68 55.3926 48.646 55.3926H8.53413C8.50018 55.3926 8.47266 55.3651 8.47266 55.3312V1.84859C8.47266 1.81463 8.50018 1.78711 8.53413 1.78711H38.8641C38.9634 1.78711 39.0608 1.79676 39.1571 1.81106V9.48895C39.1571 10.5083 39.9863 11.3375 41.0057 11.3375H48.6836C48.6979 11.434 48.7075 11.5317 48.7075 11.6311V48.6462C48.7075 49.1397 49.1076 49.5397 49.6011 49.5397C50.0946 49.5397 50.4946 49.1397 50.4946 48.6462V11.6311C50.4946 10.6272 50.1037 9.68339 49.3938 8.97331L41.5219 1.10098C40.8119 0.39102 39.8681 0 38.8641 0H8.53413C7.51477 0 6.68555 0.829219 6.68555 1.84859V55.3312C6.68555 56.3505 7.51477 57.1798 8.53413 57.1798H10.5057V59.1513C10.5057 60.1707 11.3349 60.9999 12.3543 60.9999H52.4663C53.4857 60.9999 54.3149 60.1707 54.3149 59.1513V5.66883C54.3149 4.64946 53.4857 3.82012 52.4663 3.82012V3.82012ZM47.4437 9.55043H41.0058C40.9718 9.55043 40.9443 9.52291 40.9443 9.48895V3.0506L47.4437 9.55043Z" fill="#F16522"/>
<path d="M42.9156 14.3257H32.4102C31.9167 14.3257 31.5166 14.7258 31.5166 15.2193C31.5166 15.7127 31.9167 16.1128 32.4102 16.1128H42.9156C43.4091 16.1128 43.8092 15.7127 43.8092 15.2193C43.8092 14.7258 43.4092 14.3257 42.9156 14.3257V14.3257Z" fill="#F16522"/>
<path d="M41.0056 20.8881C41.499 20.8881 41.8991 20.488 41.8991 19.9945C41.8991 19.5011 41.499 19.101 41.0056 19.101H32.4102C31.9167 19.101 31.5166 19.5011 31.5166 19.9945C31.5166 20.488 31.9167 20.8881 32.4102 20.8881H41.0056Z" fill="#F16522"/>
<path d="M43.809 28.5899C43.809 28.0965 43.4089 27.6964 42.9154 27.6964H14.2642C13.7707 27.6964 13.3706 28.0965 13.3706 28.5899C13.3706 29.0834 13.7707 29.4835 14.2642 29.4835H42.9156C43.409 29.4835 43.809 29.0834 43.809 28.5899V28.5899Z" fill="#F16522"/>
<path d="M39.0953 32.4715H14.2642C13.7707 32.4715 13.3706 32.8716 13.3706 33.3651C13.3706 33.8586 13.7707 34.2587 14.2642 34.2587H39.0953C39.5888 34.2587 39.9889 33.8586 39.9889 33.3651C39.9889 32.8716 39.5888 32.4715 39.0953 32.4715Z" fill="#F16522"/>
<path d="M14.2642 43.8091H39.0953C39.5888 43.8091 39.9889 43.409 39.9889 42.9155C39.9889 42.422 39.5888 42.022 39.0953 42.022H14.2642C13.7707 42.022 13.3706 42.422 13.3706 42.9155C13.3706 43.409 13.7706 43.8091 14.2642 43.8091V43.8091Z" fill="#F16522"/>
<path d="M14.2642 39.0339H32.4101C32.9036 39.0339 33.3037 38.6338 33.3037 38.1404C33.3037 37.6469 32.9036 37.2468 32.4101 37.2468H14.2642C13.7707 37.2468 13.3706 37.6469 13.3706 38.1404C13.3706 38.6338 13.7706 39.0339 14.2642 39.0339V39.0339Z" fill="#F16522"/>
</g>
<defs>
<clipPath id="clip0_6_60">
<rect width="61" height="61" fill="white"/>
</clipPath>
</defs>
</svg>
