<svg width="61" height="61" viewBox="0 0 61 61" fill="none" xmlns="http://www.w3.org/2000/svg">
<g clip-path="url(#clip0_6_37)">
<path d="M36.2281 0H58.1233C59.7717 0 61.0003 1.4721 61.0003 3.07955V16.8708C61.0003 18.4782 59.7717 19.9503 58.1233 19.9503H36.2281C34.5668 19.9503 33.3506 18.4782 33.3506 16.8708V14.3722L28.6908 11.9946C27.2587 11.265 27.2587 9.11759 28.6908 8.38798C30.2443 7.59116 31.7975 6.8077 33.3506 6.01041V3.07955C33.3501 1.4721 34.5663 0 36.2281 0V0ZM58.1233 1.90434H36.2281C35.6204 1.90434 35.2554 2.52578 35.2554 3.07955V6.59181C35.2554 6.92922 35.0667 7.2671 34.7288 7.42913C32.9994 8.32078 31.2842 9.21243 29.5552 10.0903C29.4609 10.1441 29.4876 10.2656 29.5552 10.2928L34.6483 12.9134C34.999 13.0483 35.2559 13.3862 35.2559 13.7912V16.8708C35.2559 17.4246 35.6209 18.046 36.2285 18.046H58.1237C58.7313 18.046 59.0964 17.4246 59.0964 16.8708V3.07955C59.0959 2.52578 58.7309 1.90434 58.1233 1.90434V1.90434Z" fill="#F16522"/>
<path d="M40.2394 6.71285C38.9827 6.71285 38.9827 4.8085 40.2394 4.8085H54.5301C55.773 4.8085 55.773 6.71285 54.5301 6.71285H40.2394ZM40.2394 15.1552C38.9827 15.1552 38.9827 13.2503 40.2394 13.2503H48.7222C49.9784 13.2503 49.9784 15.1552 48.7222 15.1552H40.2394ZM40.2394 10.9276C38.9827 10.9276 38.9827 9.02274 40.2394 9.02274H54.5301C55.773 9.02274 55.773 10.9276 54.5301 10.9276H40.2394Z" fill="#F16522"/>
<path d="M12.2648 18.0322C11.9813 17.924 11.7382 17.8025 11.5085 17.6676L11.3593 18.7618L14.4932 22.2869L17.6133 18.7618L17.4646 17.6676C17.2354 17.8025 16.9918 17.9245 16.7216 18.0322C15.4659 18.5321 13.5077 18.5321 12.2648 18.0322V18.0322ZM9.77954 16.2765L9.68518 16.1955C8.22594 14.8988 7.51062 13.116 7.51062 11.1706V6.79387C7.51062 2.66065 10.4281 0 14.4937 0C18.5592 0 21.4634 2.66065 21.4634 6.79387V11.1706C21.4634 13.116 20.7476 14.8988 19.2889 16.1955L19.194 16.2765L19.5047 18.5726L21.1394 20.0042L25.7725 22.0172C26.7723 22.4633 27.5691 23.1519 28.1229 24.0164C28.6767 24.8942 28.974 25.9207 28.974 27.0149V29.6489C28.974 30.1755 28.5551 30.6082 28.0285 30.6082C27.5019 30.6082 27.0692 30.1759 27.0692 29.6489V27.0149C27.0692 26.2719 26.8805 25.5966 26.5155 25.0429C26.1647 24.4891 25.6515 24.0435 25.0162 23.76L21.2208 22.112L19.6267 27.0964C19.4781 27.5963 18.9381 27.8665 18.4382 27.7178C18.3438 27.6773 18.249 27.6368 18.168 27.5691L15.4392 25.5833V29.6489C15.4392 30.1755 15.0208 30.6082 14.4942 30.6082C13.9676 30.6082 13.5344 30.1755 13.5344 29.6489V25.5833L10.8194 27.5825C10.8194 27.5825 10.563 27.704 10.5358 27.7174C10.0359 27.866 9.50933 27.5958 9.3473 27.0959L7.76702 22.1115L3.95785 23.7595C3.32307 24.0431 2.80981 24.4886 2.45859 25.0424C2.10736 25.5962 1.90482 26.2719 1.90482 27.0144V38.968C1.90482 39.4951 1.48592 39.9274 0.95932 39.9274C0.432719 39.9274 0 39.4961 0 38.969V27.0149C0 25.9207 0.297375 24.8942 0.864484 24.0164C1.40491 23.1519 2.20172 22.4628 3.20107 22.0172L7.83421 20.0047L9.46882 18.5731L9.77954 16.2765ZM11.3598 15.1418C11.4137 15.1823 11.4547 15.2228 11.4952 15.2767C11.9407 15.6684 12.3997 16.0468 12.9539 16.2627C13.7512 16.5734 15.2371 16.5734 16.0206 16.2627C16.5744 16.0463 17.0338 15.6684 17.4794 15.2767C17.5203 15.2228 17.5742 15.1823 17.628 15.1418C17.7634 15.0203 17.8983 14.8988 18.0198 14.7768C19.0735 13.8313 19.5596 12.5751 19.5596 11.1706V9.14476C16.0611 9.80623 14.0753 8.2126 13.0621 6.88919C11.9274 8.22642 10.4825 8.29362 9.42879 8.09108V11.1706C9.42879 12.5751 9.90154 13.8313 10.9552 14.7768C11.0901 14.8988 11.225 15.0203 11.3598 15.1418ZM10.2795 20.3959L9.44166 21.1255L10.7517 25.2588L13.0883 23.557L10.2795 20.3959ZM18.6946 20.3959L15.8986 23.557L18.2218 25.2588L19.5324 21.1255L18.6946 20.3959ZM5.59198 32.594C5.59198 32.0674 6.02423 31.6347 6.5513 31.6347C7.07838 31.6347 7.4968 32.0669 7.4968 32.594V38.969C7.4968 39.4961 7.07791 39.9283 6.5513 39.9283C6.0247 39.9283 5.59198 39.4965 5.59198 38.969V32.594ZM9.45548 6.14575C10.1989 6.33495 11.4952 6.3888 12.1976 4.65983C12.5355 3.8492 13.6564 3.82251 13.9804 4.7275C13.9804 4.7275 15.1823 8.19878 19.5591 7.19943V6.79387C19.5591 3.71433 17.506 1.90434 14.4937 1.90434C11.7787 1.90434 9.73951 3.37645 9.45548 6.14575V6.14575Z" fill="#F16522"/>
<path d="M39.6181 41.5091C37.8753 39.9688 37.0247 38.1184 37.0247 35.7813V30.8379C37.0247 26.2586 40.2529 23.3006 44.7783 23.3006C49.2899 23.3006 52.5177 26.2591 52.5177 30.8379V35.7813C52.5177 38.1179 51.6799 39.9684 49.9381 41.5091L50.3165 45.4393L57.4616 48.1276C59.6766 49.1003 61.0005 51.2481 61.0005 53.6524V60.0412C61.0005 60.5678 60.5687 61.0005 60.0417 61.0005C59.5146 61.0005 59.0962 60.5683 59.0962 60.0412V53.6524C59.0962 52.0044 58.2455 50.559 56.7186 49.8837L49.1007 47.0067C46.2514 46.1022 43.3734 45.9125 40.4831 46.7637L32.8242 49.8837C31.3116 50.559 30.4605 52.0044 30.4605 53.6524V60.0412C30.4605 60.5678 30.0283 61.0005 29.5012 61.0005C28.975 61.0005 28.5562 60.5683 28.5562 60.0412V53.6524C28.5562 51.2481 29.8796 49.1003 32.0951 48.1276L39.2678 45.2101L39.6181 41.5091ZM47.682 42.4541H41.8603C41.6173 42.4541 41.4143 42.6433 41.3876 42.8859L41.2256 44.6153C43.6022 44.1426 45.9936 44.2503 48.344 44.8179L48.1548 42.8859C48.141 42.6433 47.9384 42.4541 47.682 42.4541V42.4541ZM41.7793 40.5769H47.763C48.1138 40.5769 48.5465 40.2524 48.9249 39.8878C50.0729 38.7531 50.6134 37.4297 50.6134 35.7818V30.8379C50.6134 27.2985 48.2496 25.2049 44.7783 25.2049C41.307 25.2049 38.9295 27.299 38.9295 30.8379V35.7813C38.9295 37.5241 39.5643 38.9419 40.8615 40.0904C41.1717 40.3739 41.4953 40.5769 41.7793 40.5769V40.5769Z" fill="#F16522"/>
<path d="M9.80636 41.3061L11.3862 32.2561C11.6297 30.8651 12.9531 29.7299 14.358 29.7299H30.4182C31.9846 29.7299 33.0521 31.0676 32.7824 32.5802L30.756 44.1287C30.4992 45.6147 29.0947 46.8304 27.5817 46.8304H11.8594H6.92935C5.8752 46.8304 4.82199 46.2361 4.55178 45.1553L3.90366 42.4941C3.75497 41.8865 4.21438 41.3056 4.82247 41.3056H9.80636V41.3061ZM21.9358 37.2944C22.4624 37.2944 22.8813 37.7133 22.8813 38.2394C22.8813 38.766 22.4624 39.1987 21.9358 39.1987C21.4092 39.1987 20.9765 38.7665 20.9765 38.2394C20.977 37.7133 21.4092 37.2944 21.9358 37.2944ZM11.238 44.1292C11.1703 44.5886 11.4 44.926 11.8727 44.926H27.5821C28.1898 44.926 28.7707 44.3994 28.8793 43.8047L30.9052 32.2561C30.9729 31.8911 30.7837 31.6347 30.4186 31.6347H14.3585C13.8586 31.6347 13.3587 32.0808 13.2643 32.5802C12.589 36.4294 11.9132 40.2796 11.238 44.1292V44.1292ZM9.46848 43.2104H6.03771L6.40228 44.6963C6.56478 44.9799 6.79401 44.9256 6.92935 44.9256H9.38746C9.30645 44.561 9.30645 44.1693 9.3603 43.8042L9.46848 43.2104Z" fill="#F16522"/>
</g>
<defs>
<clipPath id="clip0_6_37">
<rect width="61" height="61" fill="white"/>
</clipPath>
</defs>
</svg>
