<svg width="62" height="62" viewBox="0 0 62 62" fill="none" xmlns="http://www.w3.org/2000/svg">
<path d="M61.4116 24.9419C61.4116 22.0854 59.0877 19.7614 56.2322 19.7614C54.8479 19.7614 53.5466 20.2999 52.5694 21.2791L47.5786 26.2689V14.412L39.095 5.92843H14.2766L15.1234 0H0L2.11447 14.8023L0.315195 24.6959C0.206507 25.2986 0.151175 25.9132 0.151175 26.5218C0.151175 29.4129 1.3833 32.1805 3.53236 34.1132L10.0319 39.9626V57.3082C10.0319 58.398 10.9182 59.2843 12.008 59.2843H41.8666L41.3725 61.2604H55.7618L53.5258 52.3214L55.4229 39.9952C55.4624 39.7304 55.4832 39.4636 55.4832 39.1958C55.4832 37.5102 54.917 35.9144 53.8805 34.6181L59.8949 28.6037C60.8731 27.6245 61.4116 26.3242 61.4116 24.9419ZM47.5233 38.1811C47.2605 36.7019 45.973 35.5716 44.4198 35.5706C44.4188 35.5706 44.4178 35.5706 44.4168 35.5706C42.9159 35.5706 41.6146 36.6377 41.3212 38.1089L39.7896 45.7635C39.7778 45.8218 39.7729 45.8821 39.763 45.9414L39.674 46.0303L35.1427 41.499L47.5786 29.0631L52.1099 33.5944L47.5233 38.1811ZM31.8218 48.4956L32.3001 47.379L33.793 48.872L32.6765 49.3502C32.2675 49.5251 31.7695 49.2 31.7695 48.7524C31.7695 48.6635 31.7882 48.5766 31.8218 48.4956ZM35.7494 48.0341L33.1389 45.4236L34.0796 43.2301L37.9439 47.0945L35.7494 48.0341ZM38.0931 33.3978C37.8451 33.2111 37.6979 32.9156 37.6979 32.6064C37.6979 32.0619 38.1406 31.6183 38.686 31.6183H42.2292L39.4399 34.4076L38.0931 33.3978ZM48.9758 27.666L50.5428 26.0989L55.0741 30.6302L53.507 32.1973L48.9758 27.666ZM39.674 9.30171L44.2053 13.833H39.674V9.30171ZM12.8449 1.97614L11.1514 13.833H3.97304L2.27849 1.97614H12.8449ZM4.8544 32.6449C3.12132 31.0847 2.12732 28.8537 2.12732 26.5218C2.12732 26.0307 2.17178 25.5347 2.25972 25.0486L3.94043 15.8091H11.599L12.5821 16.7923C13.4862 17.6974 13.9842 18.8988 13.9842 20.1774C13.9842 20.4916 13.9535 20.8078 13.8913 21.1161L12.3766 28.6896C12.2659 29.242 11.7778 29.6422 11.2156 29.6422C10.5625 29.6422 10.0319 29.1106 10.0319 28.4584V21.7376H8.05575V28.4584C8.05575 29.7815 8.87486 30.9138 10.0319 31.3841V37.3046L4.8544 32.6449ZM12.008 57.3082V31.5047C13.1542 31.2043 14.0731 30.2814 14.3142 29.078L15.8289 21.5024C15.9159 21.0667 15.9603 20.6211 15.9603 20.1774C15.9603 18.3712 15.2568 16.6727 13.9792 15.3951L13.0564 14.4723L13.9941 7.90457H37.6979V13.833C37.6979 14.9228 38.5842 15.8091 39.674 15.8091H45.6025V28.245L44.2053 29.6422H38.686C37.0517 29.6422 35.7218 30.9721 35.7218 32.6064C35.7218 33.5332 36.1644 34.4195 36.9074 34.9777L38.0289 35.8186L33.047 40.8004L32.9127 40.9348L30.0048 47.7189C29.8645 48.048 29.7933 48.3958 29.7933 48.7524C29.7933 50.201 30.9721 51.3797 32.4206 51.3797C32.7793 51.3797 33.1281 51.3086 33.4561 51.1673L39.8717 48.4185C40.2086 49.7059 40.9674 50.8679 42.0484 51.6791L43.4969 52.765L42.3606 57.3082H12.008ZM43.904 59.2843L45.3851 53.3559H51.7473L53.2284 59.2843H43.904ZM53.507 39.1958C53.507 39.3628 53.4942 39.5308 53.4695 39.6948L51.6722 51.3797H44.9434L43.2351 50.0982C42.243 49.3542 41.6502 48.1695 41.6502 46.9295C41.6502 46.6676 41.6759 46.4068 41.7273 46.1528L43.2588 38.4963C43.3684 37.9459 43.8546 37.5467 44.4168 37.5467H44.4178C45.0709 37.5467 45.6025 38.0793 45.6025 38.7324V45.4513H47.5786V40.92L52.4617 36.037C53.1306 36.9519 53.507 38.0417 53.507 39.1958ZM58.4978 27.2075L56.4713 29.2331L51.941 24.7018L53.9675 22.6753C54.5712 22.0706 55.3755 21.7376 56.2322 21.7376C57.9988 21.7376 59.4355 23.1752 59.4355 24.9419C59.4355 25.7966 59.1025 26.6019 58.4978 27.2075Z" fill="#F16522"/>
<path d="M27.8168 9.88074H15.96V11.8569H25.8407V25.6899H15.96V27.666H27.8168V9.88074Z" fill="#F16522"/>
<path d="M29.793 13.833H35.7214V15.8092H29.793V13.833Z" fill="#F16522"/>
<path d="M29.793 17.7853H33.7453V19.7614H29.793V17.7853Z" fill="#F16522"/>
<path d="M35.7217 17.7853H43.6263V19.7614H35.7217V17.7853Z" fill="#F16522"/>
<path d="M29.793 21.7375H43.626V23.7137H29.793V21.7375Z" fill="#F16522"/>
<path d="M29.793 25.6899H31.7691V27.666H29.793V25.6899Z" fill="#F16522"/>
<path d="M33.7456 25.6899H35.7217V27.666H33.7456V25.6899Z" fill="#F16522"/>
<path d="M37.6978 25.6899H39.6739V27.666H37.6978V25.6899Z" fill="#F16522"/>
<path d="M13.9839 31.6183H31.7692V33.5944H13.9839V31.6183Z" fill="#F16522"/>
<path d="M25.8408 35.5706H31.7693V37.5467H25.8408V35.5706Z" fill="#F16522"/>
<path d="M13.9839 35.5706H23.8646V37.5467H13.9839V35.5706Z" fill="#F16522"/>
<path d="M13.9839 39.5229H23.8646V41.499H13.9839V39.5229Z" fill="#F16522"/>
<path d="M25.1145 52.0032C24.7914 51.0398 23.8923 50.3917 22.8765 50.3917C21.8608 50.3917 20.9616 51.0398 20.6376 52.0052L20.3224 52.9557C20.1791 53.3816 19.527 53.4675 19.279 53.096L18.1516 51.4064C17.7297 50.7701 17.0222 50.3917 16.2594 50.3917C15.0046 50.3917 13.9839 51.4123 13.9839 52.6672V55.332H15.96V52.6672C15.96 52.4014 16.3592 52.2799 16.5084 52.5012L17.6358 54.1908C18.1111 54.9052 18.9074 55.332 19.7671 55.332C20.8707 55.332 21.8479 54.6285 22.1977 53.5802L22.5129 52.6306C22.6186 52.3164 23.1344 52.3174 23.2401 52.6296L23.6897 53.9803C23.9595 54.7886 24.7124 55.332 25.5651 55.332H30.7811V53.3559H25.5651L25.1145 52.0032Z" fill="#F16522"/>
</svg>
