<svg width="94" height="57" viewBox="0 0 94 57" fill="none" xmlns="http://www.w3.org/2000/svg">
<path d="M8.48208 51.0156L3.62706 50.6736L1.17124 52.2695L14.6784 57L57.6745 33.2903L51.9505 46.551L57.2967 42.7704L70.4827 24.1901L93.152 5.19192C93.152 5.19192 93.2086 5.13494 93.3031 5.00196C95.0222 2.93115 93.3409 -0.146565 90.6583 0.00542069C88.0136 0.157406 84.5565 -0.127582 82.4407 0.138393C82.4407 0.138393 78.8136 0.157401 72.2017 5.34391L49.9669 20.6945L14.6028 23.7722L9.93667 27.5908L37.0076 31.1625L19.5334 44.3852L6.6874 40.9655L0 43.1504L9.44555 50.5026L8.48208 51.0156Z" fill="#035297"/>
</svg>
